{"asset":{"version":"2.0","generator":"babylon.js glTF exporter for 3dsmax 2020 v20210519.2"},"scene":0,"scenes":[{"nodes":[0,1,2,3]}],"nodes":[{"mesh":0,"translation":[-0.0140722077,0.0170956422,-0.472676158],"name":"Box001"},{"mesh":1,"translation":[0.485916823,0.399238169,-0.472676158],"rotation":[-0.50000006,0.5,0.5,0.5],"name":"Cylinder001"},{"mesh":2,"translation":[-0.1855072,0.416061878,-0.164904445],"rotation":[0.7071068,0.0,0.0,0.7071067],"name":"Line002"},{"mesh":3,"translation":[0.160797745,0.411902368,-0.170536116],"rotation":[0.7071068,0.0,0.0,0.7071067],"name":"Line003"}],"meshes":[{"primitives":[{"attributes":{"POSITION":1,"NORMAL":2,"TEXCOORD_0":3},"indices":0,"material":0},{"attributes":{"POSITION":5,"NORMAL":6,"TEXCOORD_0":7},"indices":4,"material":1}],"name":"Box001"},{"primitives":[{"attributes":{"POSITION":9,"NORMAL":10,"TEXCOORD_0":11},"indices":8,"material":2},{"attributes":{"POSITION":13,"NORMAL":14,"TEXCOORD_0":15},"indices":12,"material":1}],"name":"Cylinder001"},{"primitives":[{"attributes":{"POSITION":17,"NORMAL":18,"TEXCOORD_0":19},"indices":16,"material":3}],"name":"Line002"},{"primitives":[{"attributes":{"POSITION":21,"NORMAL":22,"TEXCOORD_0":23},"indices":20,"material":3}],"name":"Line003"}],"accessors":[{"bufferView":0,"componentType":5123,"count":54,"type":"SCALAR","name":"accessorIndices"},{"bufferView":1,"componentType":5126,"count":54,"max":[0.499850035,0.313034534,0.299999982],"min":[-0.499850035,0.0,-0.299999982],"type":"VEC3","name":"accessorPositions"},{"bufferView":1,"byteOffset":648,"componentType":5126,"count":54,"type":"VEC3","name":"accessorNormals"},{"bufferView":2,"componentType":5126,"count":54,"type":"VEC2","name":"accessorUVs"},{"bufferView":0,"byteOffset":108,"componentType":5123,"count":1014,"type":"SCALAR","name":"accessorIndices"},{"bufferView":1,"byteOffset":1296,"componentType":5126,"count":1014,"max":[0.507850051,0.382144928,0.308],"min":[-0.507850051,0.0,-0.308],"type":"VEC3","name":"accessorPositions"},{"bufferView":1,"byteOffset":13464,"componentType":5126,"count":1014,"type":"VEC3","name":"accessorNormals"},{"bufferView":2,"byteOffset":432,"componentType":5126,"count":1014,"type":"VEC2","name":"accessorUVs"},{"bufferView":0,"byteOffset":2136,"componentType":5123,"count":756,"type":"SCALAR","name":"accessorIndices"},{"bufferView":1,"byteOffset":25632,"componentType":5126,"count":756,"max":[0.3,1.00000048,0.299999982],"min":[-0.300000042,-4.148636E-09,-0.00761170359],"type":"VEC3","name":"accessorPositions"},{"bufferView":1,"byteOffset":34704,"componentType":5126,"count":756,"type":"VEC3","name":"accessorNormals"},{"bufferView":2,"byteOffset":8544,"componentType":5126,"count":756,"type":"VEC2","name":"accessorUVs"},{"bufferView":0,"byteOffset":3648,"componentType":5123,"count":1656,"type":"SCALAR","name":"accessorIndices"},{"bufferView":1,"byteOffset":43776,"componentType":5126,"count":1656,"max":[0.307575017,1.00761211,0.3076485],"min":[-0.307575047,-0.007611676,-0.00761170359],"type":"VEC3","name":"accessorPositions"},{"bufferView":1,"byteOffset":63648,"componentType":5126,"count":1656,"type":"VEC3","name":"accessorNormals"},{"bufferView":2,"byteOffset":14592,"componentType":5126,"count":1656,"type":"VEC2","name":"accessorUVs"},{"bufferView":0,"byteOffset":6960,"componentType":5123,"count":2364,"type":"SCALAR","name":"accessorIndices"},{"bufferView":1,"byteOffset":83520,"componentType":5126,"count":2364,"max":[0.06166721,0.0200000014,0.0741796941],"min":[-0.0617504865,-9.46182E-10,-0.04494946],"type":"VEC3","name":"accessorPositions"},{"bufferView":1,"byteOffset":111888,"componentType":5126,"count":2364,"type":"VEC3","name":"accessorNormals"},{"bufferView":2,"byteOffset":27840,"componentType":5126,"count":2364,"type":"VEC2","name":"accessorUVs"},{"bufferView":0,"byteOffset":11688,"componentType":5123,"count":2364,"type":"SCALAR","name":"accessorIndices"},{"bufferView":1,"byteOffset":140256,"componentType":5126,"count":2364,"max":[0.06166721,0.0200000014,0.0741796941],"min":[-0.0617504865,-9.46182E-10,-0.04494946],"type":"VEC3","name":"accessorPositions"},{"bufferView":1,"byteOffset":168624,"componentType":5126,"count":2364,"type":"VEC3","name":"accessorNormals"},{"bufferView":2,"byteOffset":46752,"componentType":5126,"count":2364,"type":"VEC2","name":"accessorUVs"}],"bufferViews":[{"buffer":0,"byteLength":16416,"name":"bufferViewScalar"},{"buffer":0,"byteOffset":16416,"byteLength":196992,"byteStride":12,"name":"bufferViewFloatVec3"},{"buffer":0,"byteOffset":213408,"byteLength":65664,"byteStride":8,"name":"bufferViewFloatVec2"}],"buffers":[{"uri":"coffre.bin","byteLength":279072}],"materials":[{"pbrMetallicRoughness":{"baseColorTexture":{"index":0},"metallicFactor":0.0,"roughnessFactor":0.450053632},"name":"Mat_bois_vert"},{"pbrMetallicRoughness":{"baseColorTexture":{"index":1},"metallicFactor":0.0,"roughnessFactor":0.450053632},"name":"mat_metal"},{"pbrMetallicRoughness":{"baseColorTexture":{"index":0},"metallicFactor":0.0,"roughnessFactor":0.450053632},"name":"mat_bois_hori"},{"pbrMetallicRoughness":{"baseColorTexture":{"index":2},"metallicFactor":0.0,"roughnessFactor":0.450053632},"name":"03 - Default"}],"textures":[{"sampler":0,"source":0,"name":"bois_C.jpg"},{"sampler":0,"source":1,"name":"metal_rouille_B.png"},{"sampler":0,"source":2,"name":"metal_diffuse_C.png"}],"images":[{"uri":"./bois_C.jpg"},{"uri":"./metal_rouille_B.png"},{"uri":"./metal_diffuse_C.png"}],"samplers":[{"magFilter":9729,"minFilter":9987}]}