{"asset":{"version":"2.0","generator":"babylon.js glTF exporter for 3dsmax 2020 v20210519.2"},"scene":0,"scenes":[{"nodes":[0,1,2]}],"nodes":[{"mesh":0,"translation":[0.711276531,0.45998323,-1.30963871E-08],"rotation":[0.7071068,0.0,0.0,0.7071067],"scale":[0.4275681,0.9243442,0.4624438],"name":"gontran"},{"translation":[0.0203924552,0.37828964,-0.142403245],"name":"PhysCamera001.Target"},{"camera":0,"translation":[-0.008377304,0.37828964,15.9855261],"rotation":[5.96046448E-08,-0.000891922566,0.0,0.9999996],"scale":[0.99999994,0.99999994,1.0],"name":"PhysCamera001"}],"cameras":[{"perspective":{"yfov":0.140046865,"zfar":10000.0,"znear":0.1},"type":"perspective","name":"PhysCamera001"}],"meshes":[{"primitives":[{"attributes":{"POSITION":1,"NORMAL":2,"TEXCOORD_0":3},"indices":0,"material":0}],"name":"gontran"}],"accessors":[{"bufferView":0,"componentType":5123,"count":2928,"type":"SCALAR","name":"accessorIndices"},{"bufferView":1,"componentType":5126,"count":2928,"max":[0.7412296,0.3403661,0.975181758],"min":[-0.7412296,-0.340365976,-0.900741041],"type":"VEC3","name":"accessorPositions"},{"bufferView":1,"byteOffset":35136,"componentType":5126,"count":2928,"type":"VEC3","name":"accessorNormals"},{"bufferView":2,"componentType":5126,"count":2928,"type":"VEC2","name":"accessorUVs"}],"bufferViews":[{"buffer":0,"byteLength":5856,"name":"bufferViewScalar"},{"buffer":0,"byteOffset":5856,"byteLength":70272,"byteStride":12,"name":"bufferViewFloatVec3"},{"buffer":0,"byteOffset":76128,"byteLength":23424,"byteStride":8,"name":"bufferViewFloatVec2"}],"buffers":[{"uri":"jean.bin","byteLength":99552}],"materials":[{"pbrMetallicRoughness":{"baseColorFactor":[1.0,0.02877698,0.02877698,1.0],"metallicFactor":0.0},"doubleSided":true,"name":"Material #27","extras":{"babylonSeparateCullingPass":false}}]}