{"asset":{"version":"2.0","generator":"babylon.js glTF exporter for 3dsmax 2020 v20210519.2"},"scene":0,"scenes":[{"nodes":[0]}],"nodes":[{"mesh":0,"translation":[0.143521875,0.0,-0.0180371478],"name":"Terrain1"}],"meshes":[{"primitives":[{"attributes":{"POSITION":1,"NORMAL":2,"TEXCOORD_0":3},"indices":0,"material":0}],"name":"Terrain1"}],"accessors":[{"bufferView":0,"componentType":5125,"count":614892,"type":"SCALAR","name":"accessorIndices"},{"bufferView":1,"componentType":5126,"count":614892,"max":[0.38736853,0.147958159,0.4283632],"min":[-0.412631452,-1E-08,-0.3716368],"type":"VEC3","name":"accessorPositions"},{"bufferView":1,"byteOffset":7378704,"componentType":5126,"count":614892,"type":"VEC3","name":"accessorNormals"},{"bufferView":2,"componentType":5126,"count":614892,"type":"VEC2","name":"accessorUVs"}],"bufferViews":[{"buffer":0,"byteLength":2459568,"name":"bufferViewScalar"},{"buffer":0,"byteOffset":2459568,"byteLength":14757408,"byteStride":12,"name":"bufferViewFloatVec3"},{"buffer":0,"byteOffset":17216976,"byteLength":4919136,"byteStride":8,"name":"bufferViewFloatVec2"}],"buffers":[{"uri":"mountain.bin","byteLength":22136112}],"materials":[{"pbrMetallicRoughness":{"baseColorTexture":{"index":0},"metallicFactor":0.0,"roughnessFactor":0.450053632},"name":"Material #26"}],"textures":[{"sampler":0,"source":0,"name":"Color.png"}],"images":[{"uri":"./Color.png"}],"samplers":[{"magFilter":9729,"minFilter":9987}]}